# Blender v2.70 (sub 0) OBJ File: 'speedUpgrade.blend'
# www.blender.org
mtllib speedUpgrade.mtl
o Cube
v 0.300000 -0.300000 -0.300000
v 0.300000 -0.300000 0.300000
v -0.300000 -0.300000 0.300000
v -0.300000 -0.300000 -0.300000
v 0.300000 0.300000 -0.300000
v 0.300000 0.300000 0.300000
v -0.300000 0.300000 0.300000
v -0.300000 0.300000 -0.300000
vt 1.000000 1.000000
vt 0.000000 1.000000
vt 0.000000 0.000000
vt 1.000000 0.000000
vn 0.000000 -1.000000 -0.000000
vn 0.000000 1.000000 0.000000
vn 1.000000 0.000000 0.000000
vn -0.000000 -0.000000 1.000000
vn -1.000000 -0.000000 -0.000000
vn 0.000000 0.000000 -1.000000
usemtl Material
s off
f 1/1/1 2/2/1 3/3/1 4/4/1
f 5/1/2 8/2/2 7/3/2 6/4/2
f 1/4/3 5/1/3 6/2/3 2/3/3
f 2/4/4 6/1/4 7/2/4 3/3/4
f 3/2/5 7/3/5 8/4/5 4/1/5
f 5/4/6 1/1/6 4/2/6 8/3/6
