# Blender v2.70 (sub 0) OBJ File: ''
# www.blender.org
mtllib torus.mtl
o Torus
v 1.250000 0.000000 0.000000
v 0.875000 0.216506 0.000000
v 0.875000 -0.216506 0.000000
v 1.082532 0.000000 -0.625000
v 0.757772 0.216506 -0.437500
v 0.757772 -0.216506 -0.437500
v 0.625000 0.000000 -1.082532
v 0.437500 0.216506 -0.757772
v 0.437500 -0.216506 -0.757772
v 0.000000 0.000000 -1.250000
v 0.000000 0.216506 -0.875000
v 0.000000 -0.216506 -0.875000
v -0.625000 0.000000 -1.082532
v -0.437500 0.216506 -0.757772
v -0.437500 -0.216506 -0.757772
v -1.082532 0.000000 -0.625000
v -0.757772 0.216506 -0.437500
v -0.757772 -0.216506 -0.437500
v -1.250000 0.000000 -0.000000
v -0.875000 0.216506 -0.000000
v -0.875000 -0.216506 -0.000000
v -1.082532 0.000000 0.625000
v -0.757772 0.216506 0.437500
v -0.757772 -0.216506 0.437500
v -0.625000 0.000000 1.082532
v -0.437500 0.216506 0.757772
v -0.437500 -0.216506 0.757772
v 0.000000 0.000000 1.250000
v 0.000000 0.216506 0.875000
v 0.000000 -0.216506 0.875000
v 0.625000 0.000000 1.082532
v 0.437500 0.216506 0.757772
v 0.437500 -0.216506 0.757772
v 1.082532 0.000000 0.625000
v 0.757772 0.216506 0.437500
v 0.757772 -0.216506 0.437500
vn -0.965926 -0.000000 0.258819
vn -0.258819 -0.000000 0.965926
vn 0.132788 -0.858356 -0.495572
vn 0.258819 -0.000000 0.965926
vn -0.132788 -0.858356 -0.495572
vn -0.495572 0.858356 -0.132788
vn -0.362784 0.858356 -0.362784
vn 0.707107 -0.000000 0.707107
vn -0.362784 -0.858356 -0.362784
vn -0.362784 0.858356 0.362784
vn 0.965926 0.000000 0.258819
vn -0.495572 -0.858356 -0.132788
vn -0.495572 -0.858356 0.132788
vn -0.495572 0.858356 0.132788
vn -0.362784 -0.858356 0.362784
vn 0.965926 0.000000 -0.258819
vn 0.707107 0.000000 -0.707107
vn 0.258819 -0.000000 -0.965926
vn -0.132788 0.858356 0.495572
vn 0.362784 0.858356 0.362784
vn -0.132788 -0.858356 0.495572
vn 0.132788 0.858356 0.495572
vn 0.132788 -0.858356 0.495572
vn -0.258819 -0.000000 -0.965926
vn -0.707107 0.000000 -0.707107
vn 0.362784 -0.858356 0.362784
vn 0.495572 -0.858356 0.132788
vn 0.495572 0.858356 0.132788
vn 0.362784 -0.858356 -0.362784
vn -0.707107 0.000000 0.707107
vn -0.965926 0.000000 -0.258819
vn 0.495572 0.858356 -0.132788
vn 0.362784 0.858356 -0.362784
vn 0.495572 -0.858356 -0.132788
vn -0.132788 0.858356 -0.495572
vn 0.132788 0.858356 -0.495572
usemtl None
s off
f 6//1 3//1 2//1 5//1
f 12//2 9//2 8//2 11//2
f 10//3 7//3 9//3 12//3
f 15//4 12//4 11//4 14//4
f 13//5 10//5 12//5 15//5
f 20//6 17//6 16//6 19//6
f 17//7 14//7 13//7 16//7
f 18//8 15//8 14//8 17//8
f 16//9 13//9 15//9 18//9
f 23//10 22//10 25//10 26//10
f 21//11 18//11 17//11 20//11
f 19//12 16//12 18//12 21//12
f 22//13 19//13 21//13 24//13
f 23//14 20//14 19//14 22//14
f 25//15 22//15 24//15 27//15
f 24//16 21//16 20//16 23//16
f 27//17 24//17 23//17 26//17
f 30//18 27//18 26//18 29//18
f 29//19 26//19 25//19 28//19
f 35//20 32//20 31//20 34//20
f 28//21 25//21 27//21 30//21
f 32//22 29//22 28//22 31//22
f 31//23 28//23 30//23 33//23
f 33//24 30//24 29//24 32//24
f 36//25 33//25 32//25 35//25
f 31//26 33//26 36//26 34//26
f 3//27 1//27 34//27 36//27
f 1//28 2//28 35//28 34//28
f 7//29 4//29 6//29 9//29
f 9//30 6//30 5//30 8//30
f 2//31 3//31 36//31 35//31
f 5//32 2//32 1//32 4//32
f 8//33 5//33 4//33 7//33
f 4//34 1//34 3//34 6//34
f 14//35 11//35 10//35 13//35
f 11//36 8//36 7//36 10//36
